<svg width="48" height="48" fill="none" xmlns="http://www.w3.org/2000/svg"><path fill-rule="evenodd" clip-rule="evenodd" d="M24 0C10.745 0 0 10.745 0 24s10.745 24 24 24 24-10.745 24-24S37.255 0 24 0zm1.954 31.576c-.236.25-.698.3-.698.3h-1.53s-3.376.2-6.35-2.839c-3.243-3.315-6.107-9.892-6.107-9.892s-.165-.43.014-.639c.202-.234.752-.25.752-.25l3.657-.022s.344.055.59.233c.205.148.319.422.319.422s.591 1.467 1.373 2.794c1.53 2.593 2.24 3.16 2.759 2.881.756-.404.53-3.663.53-3.663s.013-1.183-.381-1.71c-.306-.408-.882-.527-1.136-.56-.206-.027.132-.497.57-.707.659-.316 1.82-.334 3.194-.32 1.07.01 1.379.075 1.797.175.97.23.94.966.875 2.557A38.8 38.8 0 0026.139 22c0 .143-.004.296-.008.453-.023.814-.049 1.747.498 2.095.28.176.965.025 2.68-2.831.812-1.355 1.42-2.946 1.42-2.946s.135-.284.341-.406c.212-.124.497-.086.497-.086l3.85-.023s1.156-.137 1.343.377c.196.537-.432 1.793-2.005 3.85-1.492 1.953-2.218 2.672-2.151 3.307.049.465.52.885 1.426 1.71 1.89 1.723 2.397 2.629 2.519 2.847l.023.04c.848 1.38-.94 1.488-.94 1.488l-3.42.047s-.734.142-1.7-.509c-.507-.341-1.001-.898-1.473-1.428-.72-.81-1.384-1.558-1.952-1.382-.953.298-.924 2.312-.924 2.312s.008.432-.209.66z" fill="#000"/></svg>